<?xml version="1.0" encoding="UTF-8"?>
<svg id="Layer_2" data-name="Layer 2" xmlns="http://www.w3.org/2000/svg" viewBox="0 0 234 234">
  <defs>
    <style>
      .cls-1 {
        fill: #99e83f;
      }

      .cls-2 {
        fill: #1e3101;
      }
    </style>
  </defs>
  <g id="Surfaces">
    <g id="_3D_AR" data-name="3D &amp;amp; AR">
      <g id="Outline_no_shadow_copy_13" data-name="Outline no shadow copy 13">
        <rect class="cls-2" width="234" height="234" rx="41.97" ry="41.97"/>
      </g>
    </g>
  </g>
  <g id="Outlined_Mnemonics_Logos" data-name="Outlined Mnemonics &amp;amp; Logos">
    <g id="Sa">
      <g>
        <path class="cls-1" d="M112.02,67.27l-.16,28.17c-6.12-4.67-18.35-9.82-33.33-9.82-8.85,0-12.4,2.9-12.4,6.92s2.74,5.63,14.49,9.02c30.91,9.02,38.8,19.64,38.8,35.9,0,21.41-17.71,34.61-45.4,34.61-16.58,0-29.14-4.02-38.8-9.66l.16-29.3c9.98,7.73,24.63,13.36,38.48,13.36,8.85,0,12.88-2.41,12.88-7.08s-4.19-6.92-15.62-9.98c-21.9-6.12-37.35-13.68-37.35-34.78s16.58-34.61,44.76-34.61c13.04,0,25.92,2.42,33.49,7.24Z"/>
        <path class="cls-1" d="M200.06,164.18c-10.46,4.83-22.38,7.41-37.35,7.41-20.77,0-37.03-8.69-37.03-28.01s16.74-26.56,36.06-26.56c4.51,0,8.21.32,11.27.8v-.97c0-5.64-4.51-9.66-15.78-9.66-7.57,0-16.1,1.93-24.15,5.15l-.16-22.54c8.37-3.22,17.87-5.31,28.82-5.31,24.47,0,38.32,11.11,38.32,35.74v43.95ZM173.01,136.17c-1.93-.64-4.51-1.13-8.21-1.13-7.24,0-12.4,2.09-12.4,7.89s4.99,8.53,12.07,8.53c3.54,0,6.28-.48,8.53-1.45v-13.85Z"/>
      </g>
    </g>
  </g>
</svg>